<?xml version="1.0" encoding="UTF-8"?>
<!DOCTYPE svg PUBLIC "-//W3C//DTD SVG 1.1//EN" "http://www.w3.org/Graphics/SVG/1.1/DTD/svg11.dtd">
<!-- Creator: CorelDRAW X7 -->
<svg xmlns="http://www.w3.org/2000/svg" xml:space="preserve" width="267.117mm" height="63.6104mm" version="1.1" style="shape-rendering:geometricPrecision; text-rendering:geometricPrecision; image-rendering:optimizeQuality; fill-rule:evenodd; clip-rule:evenodd"
viewBox="0 0 23089 5498"
 xmlns:xlink="http://www.w3.org/1999/xlink">
 <defs>
  <style type="text/css">
   <![CDATA[
    .fil0 {fill:#0071BC}
    .fil1 {fill:#BDD85F}
    .fil2 {fill:#D71920}
    .fil3 {fill:white}
   ]]>
  </style>
 </defs>
 <g id="Layer_x0020_1">
  <metadata id="CorelCorpID_0Corel-Layer"/>
  <g id="_987501371040">
   <path id="path6565" class="fil0" d="M0 5498c0,0 1609,-2370 1867,-2763 258,-393 454,-430 1167,-430 712,0 1326,0 1326,0 0,0 -1731,2555 -1891,2825 -160,270 -614,368 -1020,368 -405,0 -1449,0 -1449,0z"/>
   <path id="path6567" class="fil1" d="M3874 4214c0,0 768,-1099 1013,-1472 245,-373 432,-408 1109,-408 677,0 1260,0 1260,0 0,0 -884,1273 -1036,1530 -151,256 -583,350 -968,350 -386,0 -1378,0 -1378,0z"/>
   <path id="path6569" class="fil2" d="M7256 1880c0,0 -767,-1098 -1012,-1472 -246,-373 -432,-408 -1109,-408 -677,0 -1261,0 -1261,0 0,0 884,1273 1036,1530 152,257 584,350 969,350 385,0 1377,0 1377,0z"/>
   <path id="path6573" class="fil3" d="M8691 2391l806 0c176,0 307,47 395,141 87,94 131,228 131,402 0,179 -48,319 -143,419 -95,101 -241,151 -436,151l-265 0 0 655 -488 0 0 -1768 0 0zm488 756l119 0c93,0 159,-18 197,-55 38,-36 57,-83 57,-140 0,-56 -17,-103 -50,-142 -32,-38 -94,-58 -185,-58l-138 0 0 395 0 0z"/>
   <polygon id="path6575" class="fil3" points="10274,2391 11580,2391 11580,2767 10762,2767 10762,3046 11520,3046 11520,3408 10762,3408 10762,3759 11601,3759 11601,4159 10274,4159 10274,2391 "/>
   <path id="path6577" class="fil3" d="M11866 4159l0 -1768 809 0c149,0 264,14 343,43 80,29 144,83 192,161 49,79 73,174 73,287 0,98 -19,183 -56,254 -37,71 -88,129 -153,173 -41,28 -98,51 -170,70 57,22 100,43 126,65 18,15 43,46 77,94 34,47 57,84 68,109l237 512 -548 0 -260 -540c-33,-70 -62,-116 -88,-137 -35,-27 -75,-41 -119,-41l-43 0 0 718 -488 0 0 0zm488 -1050l204 0c22,0 65,-8 128,-24 32,-8 58,-26 79,-56 20,-30 30,-64 30,-103 0,-57 -16,-102 -48,-133 -32,-30 -92,-46 -181,-46l-212 0 0 362 0 0z"/>
   <polygon id="path6579" class="fil3" points="13436,2391 14909,2391 14909,2829 14412,2829 14412,4159 13928,4159 13928,2829 13436,2829 13436,2391 "/>
   <path id="path6581" class="fil3" d="M15942 3865l-548 0 -80 294 -495 0 591 -1768 532 0 585 1768 -507 0 -78 -294zm-103 -380l-170 -636 -172 636 342 0z"/>
   <polygon id="path6583" class="fil3" points="16807,2391 17448,2391 17691,3468 17934,2391 18572,2391 18701,4159 18303,4159 18174,2813 17870,4159 17509,4159 17206,2813 17102,4159 16704,4159 "/>
   <polygon id="path6585" class="fil3" points="18902,2391 19391,2391 19391,4159 18902,4159 "/>
   <polygon id="path6587" class="fil3" points="19738,2391 20193,2391 20783,3369 20783,2391 21241,2391 21241,4159 20783,4159 20197,3187 20197,4159 19738,4159 19738,2391 "/>
   <path id="path6589" class="fil3" d="M22503 3865l-548 0 -79 294 -495 0 590 -1768 533 0 585 1768 -508 0 -78 -294zm-102 -380l-171 -636 -172 636 343 0z"/>
  </g>
 </g>
</svg>
